<?xml version="1.0" standalone="no"?><!DOCTYPE svg PUBLIC "-//W3C//DTD SVG 1.1//EN" "http://www.w3.org/Graphics/SVG/1.1/DTD/svg11.dtd"><svg t="1481619385963" class="icon" style="" viewBox="0 0 1000 1000" version="1.1" xmlns="http://www.w3.org/2000/svg" p-id="1230" xmlns:xlink="http://www.w3.org/1999/xlink" width="32" height="32"><defs><style type="text/css"></style></defs><path d="M865.867 979.2h-733.333c-36.8 0-66.667-29.867-66.667-66.667v-733.333c0-36.833 29.867-66.667 66.667-66.667h66.667v33.333c0 55.233 44.767 100 100 100 55.2 0 100-44.767 100-100v-33.333h200v33.333c0 55.233 44.8 100 100 100s100-44.767 100-100v-33.333h66.667c36.8 0 66.667 29.834 66.667 66.667v733.333c0 36.8-29.867 66.667-66.667 66.667zM865.867 345.867h-733.333v566.667h733.333v-566.667zM299.2 512.533h-100v-100h100v100zM299.2 679.2h-100v-100h100v100zM299.2 845.867h-100v-100h100v100zM465.867 512.533h-100v-100h100v100zM465.867 679.2h-100v-100h100v100zM465.867 845.867h-100v-100h100v100zM632.534 512.533h-100v-100h100v100zM632.534 679.2h-100v-100h100v100zM632.534 845.867h-100v-100h100v100zM799.2 512.533h-100v-100h100v100zM799.2 679.2h-100v-100h100v100zM799.2 845.867h-100v-100h100v100zM698.166 212.533c-36.267 0-65.633-29.401-65.633-65.633v-68.734c0-36.267 29.366-65.633 65.633-65.633s65.633 29.366 65.633 65.633v68.734c0 36.234-29.366 65.633-65.633 65.633zM298.166 212.533c-36.267 0-65.633-29.401-65.633-65.633v-68.734c0-36.267 29.366-65.633 65.633-65.633s65.633 29.366 65.633 65.633v68.734c0 36.234-29.401 65.633-65.633 65.633z" p-id="1231" fill="#c4e1fc"></path></svg>