<?xml version="1.0" standalone="no"?><!DOCTYPE svg PUBLIC "-//W3C//DTD SVG 1.1//EN" "http://www.w3.org/Graphics/SVG/1.1/DTD/svg11.dtd"><svg class="icon" style="" viewBox="0 0 1000 1000" version="1.1" xmlns="http://www.w3.org/2000/svg" p-id="3070" xmlns:xlink="http://www.w3.org/1999/xlink" width="16" height="16"><defs><style type="text/css"><![CDATA[

]]></style></defs><path d="M821.129 454.944H543.324V177.17100000000005c0-23.943-19.387-43.359-43.346-43.359-23.968 0-43.352 19.416-43.352 43.359v277.773H178.871c-23.969 0-43.352 19.416-43.352 43.359 0 23.93 19.383 43.346 43.352 43.346h277.756v277.787c0 23.926 19.384 43.344 43.352 43.344 23.959 0 43.346-19.418 43.346-43.344V541.649h277.805c23.969 0 43.352-19.416 43.352-43.346C864.48 474.36 845.098 454.944 821.129 454.944z" p-id="3071" fill="#a59ea4"></path></svg>