<?xml version="1.0" standalone="no"?><!DOCTYPE svg PUBLIC "-//W3C//DTD SVG 1.1//EN" "http://www.w3.org/Graphics/SVG/1.1/DTD/svg11.dtd"><svg class="icon" style="" viewBox="0 0 1024 1024" version="1.1" xmlns="http://www.w3.org/2000/svg" p-id="1644" xmlns:xlink="http://www.w3.org/1999/xlink" width="16" height="16"><defs><style type="text/css"><![CDATA[

]]></style></defs><path d="M191.488 190.464q-26.624 0-45.056-18.432t-18.432-45.056 18.432-45.056 45.056-18.432l695.296 0q26.624 0 45.056 18.432t18.432 45.056-18.432 45.056-45.056 18.432l-695.296 0zM191.488 443.392q-26.624 0-45.056-18.432t-18.432-45.056 18.432-45.056 45.056-18.432l631.808 0q26.624 0 45.056 18.432t18.432 45.056-18.432 45.056-45.056 18.432l-631.808 0zM886.784 569.344q26.624 0 45.056 18.432t18.432 45.056-18.432 45.056-45.056 18.432l-695.296 0q-26.624 0-45.056-18.432t-18.432-45.056 18.432-45.056 45.056-18.432l695.296 0zM823.296 822.272q26.624 0 45.056 18.432t18.432 45.056-18.432 45.056-45.056 18.432l-631.808 0q-26.624 0-45.056-18.432t-18.432-45.056 18.432-45.056 45.056-18.432l631.808 0z" p-id="1645" fill="#a4a4a4"></path></svg>