<?xml version="1.0" standalone="no"?><!DOCTYPE svg PUBLIC "-//W3C//DTD SVG 1.1//EN" "http://www.w3.org/Graphics/SVG/1.1/DTD/svg11.dtd"><svg t="1481619163638" class="icon" style="" viewBox="0 0 1024 1024" version="1.1" xmlns="http://www.w3.org/2000/svg" p-id="721" xmlns:xlink="http://www.w3.org/1999/xlink" width="32" height="32"><defs><style type="text/css"></style></defs><path d="M298.835 247.235c0.015 0 0.030 0 0.030 0v-185.235c0-16.56-13.425-30-30-30-16.56 0-30 13.44-30 30v185.235c0 0 0.015 0 0.030 0-34.95 12.345-60.030 45.6-60.030 84.765s25.079 72.42 60.030 84.765c-0.015 0-0.030 0-0.030 0v545.235c0 16.56 13.44 30 30 30 16.575 0 30-13.44 30-30v-545.235c0 0-0.015 0-0.030 0 34.95-12.345 60.030-45.6 60.030-84.765s-25.079-72.42-60.030-84.765zM268.865 376.999c-24.839 0-45.001-20.145-45.001-45.001s20.16-45.001 45.001-45.001 45.001 20.145 45.001 45.001-20.16 45.001-45.001 45.001z" p-id="722" fill="#7b7b7b"></path><path d="M541.97 622.235c0.015 0 0.030 0 0.030 0v-560.235c0-16.56-13.425-30-30-30-16.56 0-30 13.44-30 30v560.235c0 0 0.015 0 0.030 0-34.95 12.345-60.030 45.6-60.030 84.765s25.079 72.42 60.030 84.765c-0.015 0-0.030 0-0.030 0v170.235c0 16.56 13.44 30 30 30 16.575 0 30-13.44 30-30v-170.235c0 0-0.015 0-0.030 0 34.95-12.345 60.030-45.6 60.030-84.765s-25.079-72.42-60.030-84.765zM512 752c-24.841 0-45.001-20.145-45.001-45.001s20.16-45.001 45.001-45.001 45.001 20.145 45.001 45.001-20.16 45.001-45.001 45.001z" p-id="723" fill="#7b7b7b"></path><path d="M845.135 406.999c0-39.165-25.079-72.42-60.030-84.765 0.015 0 0.030 0 0.030 0v-260.235c0-16.56-13.425-30-30-30-16.56 0-30 13.44-30 30v260.235c0 0 0.015 0 0.030 0-34.95 12.345-60.030 45.6-60.030 84.765s25.079 72.42 60.030 84.765c-0.015 0-0.030 0-0.030 0v470.235c0 16.56 13.44 30 30 30 16.575 0 30-13.44 30-30v-470.235c0 0-0.015 0-0.030 0 34.95-12.345 60.030-45.6 60.030-84.765zM755.135 452c-24.839 0-45.001-20.145-45.001-45.001s20.16-45.001 45.001-45.001 45.001 20.145 45.001 45.001-20.16 45.001-45.001 45.001z" p-id="724" fill="#7b7b7b"></path></svg>