<?xml version="1.0" standalone="no"?><!DOCTYPE svg PUBLIC "-//W3C//DTD SVG 1.1//EN" "http://www.w3.org/Graphics/SVG/1.1/DTD/svg11.dtd"><svg t="1482391640822" class="icon" style="" viewBox="0 0 1024 1024" version="1.1" xmlns="http://www.w3.org/2000/svg" p-id="4380" xmlns:xlink="http://www.w3.org/1999/xlink" width="32" height="32"><defs><style type="text/css"></style></defs><path d="M968.151457 146.854223 924.658819 192.994319C921.764607 196.064239 917.471608 196.717795 915.069377 194.453457L808.715376 78.979459C806.313527 76.71512 806.712307 72.390799 809.606138 69.320879L850.305786 25.272088C876.352171-2.359486 914.991837-8.239585 936.610385 12.138314L977.059077 50.266136C1001.079475 72.908373 997.091291 116.152347 968.151457 146.854223ZM523.229598 616.681131 410.083727 492.292255 751.792553 129.782304 868.986196 249.877416 523.229598 616.681131ZM270.711181 759.745832 334.412886 598.274978C334.412886 598.274978 339.529802 566.173169 355.079557 548.466028L356.222039 543.768901 473.409953 667.35525 469.830862 670.280785C469.830862 670.280785 452.486595 686.834748 423.251497 690.939816L270.711181 759.745832ZM598.925268 135.146738 91.592774 135.146738 91.592774 963.648202 890.681139 963.648202 890.681139 441.108582 951.032937 441.108582 951.032937 965.017576C951.032937 988.019633 937.864404 1007.944512 918.655725 1017.669937 910.787837 1021.715417 901.86532 1024 892.409187 1024L88.71766 1024C56.974142 1024 31.240975 998.266834 31.240975 966.523316L31.240975 966.52217C31.240975 966.421711 31.246323 966.32278 31.256254 966.225376 31.248233 965.82354 31.240975 965.421322 31.240975 965.017576L31.240975 108.593857C31.240975 89.927962 46.372852 74.796086 65.038746 74.796086L89.902923 74.796086C90.292154 74.796086 90.646625 74.933214 90.932342 75.154377 93.085908 74.919463 95.272705 74.79494 97.488915 74.79494L598.925268 74.79494C599.307623 74.79494 599.617404 75.10472 599.617404 75.487076L599.617404 134.454602C599.617404 134.836958 599.307623 135.146738 598.925268 135.146738Z" p-id="4381" fill="#cccccc"></path></svg>