<?xml version="1.0" standalone="no"?><!DOCTYPE svg PUBLIC "-//W3C//DTD SVG 1.1//EN" "http://www.w3.org/Graphics/SVG/1.1/DTD/svg11.dtd"><svg t="1483694712061" class="icon" style="" viewBox="0 0 1024 1024" version="1.1" xmlns="http://www.w3.org/2000/svg" p-id="1135" xmlns:xlink="http://www.w3.org/1999/xlink" width="200" height="200"><defs><style type="text/css"></style></defs><path d="M992 179.744 892.64 179.744 847.2 993.792C846.24 1010.72 832.224 1024 815.232 1024L209.408 1024C192.448 1024 178.4 1010.752 177.472 993.824L131.264 179.744 32 179.744C14.304 179.744 0 165.408 0 147.744 0 130.08 14.304 115.744 32 115.744L152.928 115.744C154.464 115.744 155.776 116.416 157.248 116.608 158.688 116.416 160.032 115.744 161.504 115.744L329.44 115.744 329.44 32C329.44 14.336 343.744 0 361.44 0L662.528 0C680.224 0 694.528 14.336 694.528 32L694.528 115.744 862.4 115.744C864.096 115.744 865.632 116.48 867.296 116.768 868.992 116.48 870.496 115.744 872.288 115.744L992 115.744C1009.696 115.744 1024 130.08 1024 147.744 1024 165.408 1009.696 179.744 992 179.744ZM630.528 64 393.44 64 393.44 115.744 630.528 115.744 630.528 64ZM195.36 179.744 239.648 960 784.992 960 828.544 179.744 195.36 179.744ZM669.312 900C668.672 900 668.096 900 667.456 899.968 649.824 898.944 636.352 883.84 637.344 866.176L671.008 273.056C672 255.392 687.36 242.176 704.736 242.912 722.4 243.936 735.872 259.04 734.88 276.672L701.216 869.824C700.256 886.848 686.144 900 669.312 900ZM512 900C494.304 900 480 885.664 480 868L480 274.88C480 257.216 494.304 242.88 512 242.88 529.696 242.88 544 257.216 544 274.88L544 868C544 885.664 529.696 900 512 900ZM355.36 899.968C354.752 900 354.144 900 353.536 900 336.672 900 322.592 886.848 321.632 869.824L287.968 276.672C286.976 259.04 300.448 243.936 318.08 242.912 335.296 242.112 350.848 255.392 351.84 273.056L385.504 866.176C386.496 883.84 373.024 898.944 355.36 899.968Z" p-id="1136"></path></svg>