<?xml version="1.0" standalone="no"?><!DOCTYPE svg PUBLIC "-//W3C//DTD SVG 1.1//EN" "http://www.w3.org/Graphics/SVG/1.1/DTD/svg11.dtd"><svg t="1486455923175" class="icon" style="" viewBox="0 0 1024 1024" version="1.1" xmlns="http://www.w3.org/2000/svg" p-id="1991" xmlns:xlink="http://www.w3.org/1999/xlink" width="200" height="200"><defs><style type="text/css"></style></defs><path d="M930.224 442.22h-2.541c-23.412 0-30.257 19.156-30.257 42.567v417.759H112.67V489.997c0-23.412-12.945-42.566-36.277-42.566h3.479c-23.571 0-36.516 19.155-36.516 42.566V931.93c0 23.507 19.044 40.486 42.472 40.486h839.424c22.635 0 41.345-19.06 41.345-41.932V484.946c0-23.427-12.961-42.726-36.373-42.726zM323.106 321.191l148.222-148.46v475.414c0 24.111 7.592 43.822 31.56 43.822 24.11 0 37.658-19.854 37.658-43.822V174.97l158.436 152.574c16.979 17.058 32.608 17.058 49.824 0 17.027-17.059 10.913-44.95-6.146-62.23L535.94 64.36c-9.578-9.577-22.586-13.85-35.134-12.547-9.784 0.937-19.361 5.05-26.795 12.547L267.292 271.476c-17.027 17.059-17.027 44.95 0 62.167 17.011 17.074 38.755 4.86 55.814-12.452z" p-id="1992" fill="#ffffff"></path></svg>