<?xml version="1.0" standalone="no"?><!DOCTYPE svg PUBLIC "-//W3C//DTD SVG 1.1//EN" "http://www.w3.org/Graphics/SVG/1.1/DTD/svg11.dtd"><svg t="1486456416279" class="icon" style="" viewBox="0 0 1024 1024" version="1.1" xmlns="http://www.w3.org/2000/svg" p-id="2487" xmlns:xlink="http://www.w3.org/1999/xlink" width="1024" height="1024"><defs><style type="text/css"></style></defs><path d="M773.160022 63.980173 150.654208 63.980173l0 895.668193L867.767749 959.648366 867.767749 158.622694 773.160022 63.980173zM823.373657 915.279856 194.921411 915.279856 194.921411 108.348684l559.870264 0 68.581981 68.608587L823.373657 915.279856zM274.869255 501.354546 743.425813 501.354546l0-44.361347L274.869255 456.993199 274.869255 501.354546zM274.869255 346.885452 743.425813 346.885452l0-44.328601L274.869255 302.55685 274.869255 346.885452zM274.869255 655.824663 743.425813 655.824663l0-44.327578L274.869255 611.497085 274.869255 655.824663zM274.869255 810.327526 743.425813 810.327526l0-44.361347L274.869255 765.966179 274.869255 810.327526z" p-id="2488" fill="#ffffff"></path></svg>