<?xml version="1.0" standalone="no"?><!DOCTYPE svg PUBLIC "-//W3C//DTD SVG 1.1//EN" "http://www.w3.org/Graphics/SVG/1.1/DTD/svg11.dtd"><svg t="1481621682172" class="icon" style="" viewBox="0 0 1024 1024" version="1.1" xmlns="http://www.w3.org/2000/svg" p-id="1399" xmlns:xlink="http://www.w3.org/1999/xlink" width="32" height="32"><defs><style type="text/css"></style></defs><path d="M1010.255 935.959l-0.028-0.028v0.029h0.028c9.13 10.666 13.71 22.47 13.71 35.412 0 14.478-5.148 26.85-15.445 37.147-9.228 9.533-22.14 15.45-36.435 15.45-0.26 0-0.519-0.002-0.779-0.006 0.016 0.001-0.012 0.001-0.041 0.001-6.313 0-12.378-1.052-18.032-2.99-8.189-2.75-15.42-7.735-20.926-14.228l0.154 1.232-282.529-284.548c-67.837 48.013-143.725 71.99-227.604 71.99-8.391 0-16.953-0.37-25.713-1.109-17.263-1.518-33.065-4.352-48.343-8.457-47.555-3.198-110.239-30.018-161.891-70.32-31.306-18.384-74-63.695-106.027-120.098-26.064-43.675-43.659-95.307-49.154-150.501 2.897 33.855-3.209-4.378-3.681-43.966 0.304 13.561 0.032 5.149 0.032-3.326 0-23.793 2.146-47.085 6.256-69.693 9.975-62.257 35.351-119.591 72.076-167.815 18.251-34.173 76.525-86.384 146.066-118.245-36.233 14.885 1.313-5.679 42.869-20.157 37.978-13.769 81.811-21.731 127.505-21.731 0.003 0 0.005 0 0.007 0 18.317 0 35.838 1.138 52.649 3.442 44.969 6.087 88.032 19.796 129.218 41.129 66.61 34.718 120.274 86.343 156.499 149.278-13.143-29.645 14.106 14.528 32.793 65.584 18.687 51.056 26.907 102.852 24.603 155.415-3.043 87.634-33.165 166.48-90.365 236.564l283.639 284.549h-1.11zM758.615 413.71c0.29-5.105 0.455-11.077 0.455-17.088 0-43.259-8.569-84.517-24.102-122.169-18.27-48.27-47.754-90.943-85.247-124.942 29.195 28.033 9.569 6.9-12.901-11.788-41.801-35.060-92.937-60.385-149.129-71.79 35.536 6.029-12.523-5.332-63.235-5.332-13.63 0-27.069 0.821-40.269 2.415-2.265-0.111-5.988 0.342-9.572 1.159l-6.018 0.959c-61.706 9.814-116.098 35.749-160.295 73.316-33.117 20.653-76.822 77.303-99.525 143.694-2.827-9.43-18.272 42.394-20.974 99.537-2.674 57.143 7.794 110.105 31.458 158.857 28.846 63.344 75.687 114.291 133.964 147.46-0.209 7.663 59.584 35.389 125.42 43.751 2.127 4.224 51.306 6.898 100.854-1.493 42.774-7.714 80.93-22.543 115.046-43.343 11.906-2.277 55.076-35.346 88.965-76.365-13.125 21.899 24.257-24.414 48.417-77.972-34.522 61.493-20.215 39.591-8.781 15.984v0.028c21.907-42.093 35.041-91.811 35.743-144.53z" fill="#ffffff" p-id="1400"></path></svg>